      <svg
        xmlns="http://www.w3.org/2000/svg"
        viewBox="0 0 80 80"
        width="80"
        height="80"
        preserveAspectRatio="xMidYMid slice"
        style="width: 100%; height: 100%; transform: translate3d(0px, 0px, 0px);"
        ><defs
          ><clipPath id="__lottie_element_14"
            ><rect width="80" height="80" x="0" y="0"></rect></clipPath
          ></defs
        ><g clip-path="url(#__lottie_element_14)"
          ><g
            transform="matrix(1,0,0,1,0,0)"
            opacity="1"
            style="display: block;"
            ><g opacity="1" transform="matrix(1,0,0,1,28,40)"
              ><path
                fill="rgb(249,249,249)"
                fill-opacity="1"
                d=" M0,29 C-7.589000225067139,29 -14,15.720000267028809 -14,0 C-14,-15.720000267028809 -7.589000225067139,-29 0,-29 C7.589000225067139,-29 14,-15.720000267028809 14,0 C14,15.720000267028809 7.589000225067139,29 0,29z"
              ></path></g
            ><g opacity="1" transform="matrix(1,0,0,1,28,40)"
              ><path
                fill="rgb(34,34,34)"
                fill-opacity="1"
                d=" M0,-28 C7.046999931335449,-28 13,-15.178000450134277 13,0 C13,15.178000450134277 7.046999931335449,28 0,28 C-7.046999931335449,28 -13,15.178000450134277 -13,0 C-13,-15.178000450134277 -7.046999931335449,-28 0,-28z M0,-30 C-8.284000396728516,-30 -15,-16.569000244140625 -15,0 C-15,16.569000244140625 -8.284000396728516,30 0,30 C8.284000396728516,30 15,16.569000244140625 15,0 C15,-16.569000244140625 8.284000396728516,-30 0,-30z"
              ></path></g
            ><g opacity="1" transform="matrix(1,0,0,1,22,40)"
              ><path
                fill="rgb(34,34,34)"
                fill-opacity="1"
                d=" M9,0 C9,-4.9710001945495605 4.9710001945495605,-9 0,-9 C-4.9710001945495605,-9 -9,-4.9710001945495605 -9,0 C-9,4.9710001945495605 -4.9710001945495605,9 0,9 C4.9710001945495605,9 9,4.9710001945495605 9,0z"
              ></path></g
            ><g opacity="1" transform="matrix(1,0,0,1,52,40)"
              ><path
                fill="rgb(249,249,249)"
                fill-opacity="1"
                d=" M0,29 C-7.589000225067139,29 -14,15.720000267028809 -14,0 C-14,-15.720000267028809 -7.589000225067139,-29 0,-29 C7.589000225067139,-29 14,-15.720000267028809 14,0 C14,15.720000267028809 7.589000225067139,29 0,29z"
              ></path></g
            ><g opacity="1" transform="matrix(1,0,0,1,52,40)"
              ><path
                fill="rgb(34,34,34)"
                fill-opacity="1"
                d=" M0,-28 C7.046999931335449,-28 13,-15.178000450134277 13,0 C13,15.178000450134277 7.046999931335449,28 0,28 C-7.046999931335449,28 -13,15.178000450134277 -13,0 C-13,-15.178000450134277 -7.046999931335449,-28 0,-28z M0,-30 C-8.284000396728516,-30 -15,-16.569000244140625 -15,0 C-15,16.569000244140625 -8.284000396728516,30 0,30 C8.284000396728516,30 15,16.569000244140625 15,0 C15,-16.569000244140625 8.284000396728516,-30 0,-30z"
              ></path></g
            ><g opacity="1" transform="matrix(1,0,0,1,46,40)"
              ><path
                fill="rgb(34,34,34)"
                fill-opacity="1"
                d=" M9,0 C9,-4.9710001945495605 4.9710001945495605,-9 0,-9 C-4.9710001945495605,-9 -9,-4.9710001945495605 -9,0 C-9,4.9710001945495605 -4.9710001945495605,9 0,9 C4.9710001945495605,9 9,4.9710001945495605 9,0z"
              ></path></g
            ></g
          ></g
        ></svg>
