<svg version="1.1" xmlns="http://www.w3.org/2000/svg" viewBox="0 0 790.0000000000002 628" width="790.0000000000002" height="628" filter="invert(93%) hue-rotate(180deg)">
  <!-- svg-source:excalidraw -->
  
  <defs>
    <style class="style-fonts">
      @font-face {
        font-family: "Virgil";
        src: url("https://excalidraw.com/Virgil.woff2");
      }
      @font-face {
        font-family: "Cascadia";
        src: url("https://excalidraw.com/Cascadia.woff2");
      }
      @font-face {
        font-family: "Assistant";
        src: url("https://excalidraw.com/Assistant-Regular.woff2");
      }
    </style>
    
  </defs>
  <g stroke-linecap="round" transform="translate(10 10) rotate(0 385.0000000000001 68.361110971539)"><path d="M32 0 C213.19 0, 394.38 0, 738 0 M32 0 C189.67 0, 347.34 0, 738 0 M738 0 C759.33 0, 770 10.67, 770 32 M738 0 C759.33 0, 770 10.67, 770 32 M770 32 C770 49.35, 770 66.7, 770 104.72 M770 32 C770 53.86, 770 75.72, 770 104.72 M770 104.72 C770 126.06, 759.33 136.72, 738 136.72 M770 104.72 C770 126.06, 759.33 136.72, 738 136.72 M738 136.72 C481.15 136.72, 224.31 136.72, 32 136.72 M738 136.72 C486.68 136.72, 235.36 136.72, 32 136.72 M32 136.72 C10.67 136.72, 0 126.06, 0 104.72 M32 136.72 C10.67 136.72, 0 126.06, 0 104.72 M0 104.72 C0 80.24, 0 55.76, 0 32 M0 104.72 C0 82.17, 0 59.62, 0 32 M0 32 C0 10.67, 10.67 0, 32 0 M0 32 C0 10.67, 10.67 0, 32 0" stroke="#1e1e1e" stroke-width="2" fill="none"></path></g><g transform="translate(23 23) rotate(0 87.890625 12)"><text x="0" y="0" font-family="Cascadia, Segoe UI Emoji" font-size="20px" fill="#1e1e1e" text-anchor="start" style="white-space: pre;" direction="ltr" dominant-baseline="text-before-edge">user processes </text></g><g stroke-linecap="round" transform="translate(27 67) rotate(0 101.5 27.5)"><path d="M13.75 0 C53.76 0.19, 93.77 -1.51, 189.25 0 M13.75 0 C54.61 1.89, 96.63 0.15, 189.25 0 M189.25 0 C196.46 0.31, 204.34 4.25, 203 13.75 M189.25 0 C196.79 0.59, 203.48 6.86, 203 13.75 M203 13.75 C202.4 21.24, 202.46 27.46, 203 41.25 M203 13.75 C202.57 21.45, 201.74 27.69, 203 41.25 M203 41.25 C201.52 50.74, 199.72 55.99, 189.25 55 M203 41.25 C202.78 51.45, 197.7 55.55, 189.25 55 M189.25 55 C135.43 53.6, 86.19 53.2, 13.75 55 M189.25 55 C142.77 57.16, 97.85 55.92, 13.75 55 M13.75 55 C5.1 53.41, 0.34 49.18, 0 41.25 M13.75 55 C4.26 55.8, 0.42 48.54, 0 41.25 M0 41.25 C1.02 35.7, -0.49 26.7, 0 13.75 M0 41.25 C-0.43 32.8, -1 26.23, 0 13.75 M0 13.75 C-0.69 4.77, 6.5 1.96, 13.75 0 M0 13.75 C-0.14 5.03, 5.57 -0.3, 13.75 0" stroke="#1e1e1e" stroke-width="2" fill="none"></path></g><g transform="translate(110.921875 82.5) rotate(0 17.578125 12)"><text x="17.578125" y="0" font-family="Cascadia, Segoe UI Emoji" font-size="20px" fill="#1e1e1e" text-anchor="middle" style="white-space: pre;" direction="ltr" dominant-baseline="text-before-edge">GUI</text></g><g stroke-linecap="round" transform="translate(246.5 66.5) rotate(0 101.5 27.5)"><path d="M13.75 0 C54.24 -0.51, 94.76 -1.58, 189.25 0 M13.75 0 C75.54 -2.1, 139.05 -1.63, 189.25 0 M189.25 0 C196.47 1.49, 203.55 2.96, 203 13.75 M189.25 0 C200.27 0.81, 201.35 3.11, 203 13.75 M203 13.75 C204.98 21.32, 203.66 31.45, 203 41.25 M203 13.75 C202.65 24.08, 202.65 33.17, 203 41.25 M203 41.25 C202.75 49.04, 198.62 53.28, 189.25 55 M203 41.25 C201.16 52.33, 200.16 54.07, 189.25 55 M189.25 55 C130.14 54.96, 74.01 55.3, 13.75 55 M189.25 55 C136.19 55.99, 85.34 54.36, 13.75 55 M13.75 55 C3.57 56.69, -1.73 48.93, 0 41.25 M13.75 55 C3.32 56.78, -0.52 52.53, 0 41.25 M0 41.25 C0.65 33.2, 1.68 23.9, 0 13.75 M0 41.25 C-0.32 33.53, -0.12 25.75, 0 13.75 M0 13.75 C1.98 4.41, 3.84 -0.58, 13.75 0 M0 13.75 C-0.2 4.7, 3.94 2.15, 13.75 0" stroke="#1e1e1e" stroke-width="2" fill="none"></path></g><g transform="translate(306.984375 82) rotate(0 41.015625 12)"><text x="41.015625" y="0" font-family="Cascadia, Segoe UI Emoji" font-size="20px" fill="#1e1e1e" text-anchor="middle" style="white-space: pre;" direction="ltr" dominant-baseline="text-before-edge">Servers</text></g><g stroke-linecap="round" transform="translate(471.5 67.5) rotate(0 101.5 27.5)"><path d="M13.75 0 C65.91 1.25, 113.5 -1.25, 189.25 0 M13.75 0 C53.28 -1.1, 93.47 -0.7, 189.25 0 M189.25 0 C198.63 -1.21, 203 5.19, 203 13.75 M189.25 0 C199.61 1.96, 203.93 4.94, 203 13.75 M203 13.75 C202.16 20.31, 204.83 25, 203 41.25 M203 13.75 C202.22 24.4, 202.17 35.49, 203 41.25 M203 41.25 C204.23 49.74, 197.19 56.89, 189.25 55 M203 41.25 C201.79 50.22, 200.69 55.85, 189.25 55 M189.25 55 C147.95 56.1, 107.89 55.05, 13.75 55 M189.25 55 C136.41 54.9, 84.45 53.55, 13.75 55 M13.75 55 C4.61 53.24, 0.75 48.46, 0 41.25 M13.75 55 C4.08 57.24, 1.21 49.54, 0 41.25 M0 41.25 C-1.58 29.63, 0.25 21.37, 0 13.75 M0 41.25 C-0.07 35.16, 0.97 30.16, 0 13.75 M0 13.75 C-1.5 5.12, 4.6 1.43, 13.75 0 M0 13.75 C-1.1 4.45, 2.43 -0.83, 13.75 0" stroke="#1e1e1e" stroke-width="2" fill="none"></path></g><g transform="translate(543.703125 83) rotate(0 29.296875 12)"><text x="29.296875" y="0" font-family="Cascadia, Segoe UI Emoji" font-size="20px" fill="#1e1e1e" text-anchor="middle" style="white-space: pre;" direction="ltr" dominant-baseline="text-before-edge">Shell</text></g><g stroke-linecap="round" transform="translate(10 178) rotate(0 385.0000000000001 103)"><path d="M32 0 C287.83 2.08, 542.73 1.83, 738 0 M32 0 C256.09 -0.14, 480.8 0.06, 738 0 M738 0 C760.13 -0.14, 770.44 10.14, 770 32 M738 0 C757.16 -2.28, 769.43 12.46, 770 32 M770 32 C771.29 60.93, 769.9 89.35, 770 174 M770 32 C769.98 81.59, 768.5 131.45, 770 174 M770 174 C770.27 196.39, 758.86 205.77, 738 206 M770 174 C769.69 196.26, 761.27 206.14, 738 206 M738 206 C559.19 208.4, 381.39 208.95, 32 206 M738 206 C562.99 208.32, 388.06 208.55, 32 206 M32 206 C12.18 207.85, 0.15 194.58, 0 174 M32 206 C8.96 204.67, 1.02 195.39, 0 174 M0 174 C0.17 121.66, -0.31 68.17, 0 32 M0 174 C0.54 130.88, 0.76 89.12, 0 32 M0 32 C0.27 9.35, 11.83 0.69, 32 0 M0 32 C0.65 9.62, 9.04 -1.85, 32 0" stroke="#1e1e1e" stroke-width="2" fill="none"></path></g><g transform="translate(24 191) rotate(0 70.3125 12)"><text x="0" y="0" font-family="Cascadia, Segoe UI Emoji" font-size="20px" fill="#1e1e1e" text-anchor="start" style="white-space: pre;" direction="ltr" dominant-baseline="text-before-edge">Linux Kernel</text></g><g stroke-linecap="round" transform="translate(28 235) rotate(0 101.5 27.5)"><path d="M13.75 0 C66.12 -0.77, 117.95 -0.05, 189.25 0 M13.75 0 C71.09 -1.37, 127.85 -1.56, 189.25 0 M189.25 0 C196.53 -1.98, 202.5 6.14, 203 13.75 M189.25 0 C196.23 -0.88, 201.28 6.69, 203 13.75 M203 13.75 C204.13 20.61, 202.33 31.51, 203 41.25 M203 13.75 C202.95 20.83, 202.58 26.73, 203 41.25 M203 41.25 C202.73 51.23, 200.1 55.12, 189.25 55 M203 41.25 C201.92 52.2, 200.51 54.42, 189.25 55 M189.25 55 C139.31 56.72, 93.05 56.11, 13.75 55 M189.25 55 C135.06 57.17, 79.44 55.86, 13.75 55 M13.75 55 C3.1 53.84, 0.88 50.47, 0 41.25 M13.75 55 C6.34 53.93, 0.13 49.85, 0 41.25 M0 41.25 C0.1 31.56, 0.06 22.91, 0 13.75 M0 41.25 C-0.08 34.48, 0.36 29.36, 0 13.75 M0 13.75 C0.57 3.68, 3.17 -1.61, 13.75 0 M0 13.75 C-1.77 5.46, 6.84 0.77, 13.75 0" stroke="#1e1e1e" stroke-width="2" fill="none"></path></g><g transform="translate(59.1875 250.5) rotate(0 70.3125 12)"><text x="70.3125" y="0" font-family="Cascadia, Segoe UI Emoji" font-size="20px" fill="#1e1e1e" text-anchor="middle" style="white-space: pre;" direction="ltr" dominant-baseline="text-before-edge">System Calls</text></g><g stroke-linecap="round" transform="translate(247.5 234.5) rotate(0 126.5 29)"><path d="M14.5 0 C66.78 2.22, 119.5 1.3, 238.5 0 M14.5 0 C79.27 -0.35, 145.45 1.17, 238.5 0 M238.5 0 C246.26 -0.77, 251.5 6.66, 253 14.5 M238.5 0 C248 0.51, 252.07 6.07, 253 14.5 M253 14.5 C251.66 20.16, 250.94 28.72, 253 43.5 M253 14.5 C252.8 25.14, 253.77 35.03, 253 43.5 M253 43.5 C252.06 54.72, 249.99 57.5, 238.5 58 M253 43.5 C252.51 54.91, 249.24 56.8, 238.5 58 M238.5 58 C161.36 59.15, 85 59.58, 14.5 58 M238.5 58 C149.99 56.77, 63.13 57.29, 14.5 58 M14.5 58 C6.36 57.07, 0.11 52.68, 0 43.5 M14.5 58 C6.08 56.89, 1.18 53.13, 0 43.5 M0 43.5 C-1.54 36.31, -0.37 26.24, 0 14.5 M0 43.5 C0.11 36.25, -0.88 29.1, 0 14.5 M0 14.5 C-1.54 5.6, 6.79 0.67, 14.5 0 M0 14.5 C0.84 4.24, 4.48 0.16, 14.5 0" stroke="#1e1e1e" stroke-width="2" fill="none"></path></g><g transform="translate(274.390625 251.5) rotate(0 99.609375 12)"><text x="99.609375" y="0" font-family="Cascadia, Segoe UI Emoji" font-size="20px" fill="#1e1e1e" text-anchor="middle" style="white-space: pre;" direction="ltr" dominant-baseline="text-before-edge">Memory Management</text></g><g stroke-linecap="round" transform="translate(522.5 235.5) rotate(0 101.5 27.5)"><path d="M13.75 0 C82.58 -0.26, 151.17 -2.59, 189.25 0 M13.75 0 C48.06 -1.75, 83.53 -0.45, 189.25 0 M189.25 0 C198.27 0.44, 202.19 5.66, 203 13.75 M189.25 0 C197.05 -0.84, 204.9 3.16, 203 13.75 M203 13.75 C203.79 19.72, 202.5 26.37, 203 41.25 M203 13.75 C202.76 23.89, 204.14 32.23, 203 41.25 M203 41.25 C202.57 51.93, 199.35 53.96, 189.25 55 M203 41.25 C204.04 52.26, 198.75 55.3, 189.25 55 M189.25 55 C129.57 56.48, 65.44 54.85, 13.75 55 M189.25 55 C147.51 54.58, 104.31 54.8, 13.75 55 M13.75 55 C5.67 54.03, 1.03 50.38, 0 41.25 M13.75 55 C4.64 54.91, 1.31 48.63, 0 41.25 M0 41.25 C-1.26 31.99, 0.74 20.98, 0 13.75 M0 41.25 C-0.57 34.63, 1.17 27.58, 0 13.75 M0 13.75 C0.73 4.07, 4.28 0.14, 13.75 0 M0 13.75 C0.5 6.57, 5.19 -2.14, 13.75 0" stroke="#1e1e1e" stroke-width="2" fill="none"></path></g><g transform="translate(541.96875 251) rotate(0 82.03125 12)"><text x="82.03125" y="0" font-family="Cascadia, Segoe UI Emoji" font-size="20px" fill="#1e1e1e" text-anchor="middle" style="white-space: pre;" direction="ltr" dominant-baseline="text-before-edge">Device Drivers</text></g><g stroke-linecap="round" transform="translate(26.5 308.5) rotate(0 144 27.5)"><path d="M13.75 0 C96.03 1.57, 182.73 0.45, 274.25 0 M13.75 0 C81.85 -1.73, 149.75 -1.48, 274.25 0 M274.25 0 C282.23 -0.73, 289.65 3.34, 288 13.75 M274.25 0 C281.91 -2.25, 288.31 5.8, 288 13.75 M288 13.75 C288.78 23.03, 288.09 28, 288 41.25 M288 13.75 C288.04 24.9, 288.72 34, 288 41.25 M288 41.25 C288.91 52.02, 283.71 55.26, 274.25 55 M288 41.25 C289.16 52.05, 285.16 57.12, 274.25 55 M274.25 55 C193.28 54.16, 114.2 54.67, 13.75 55 M274.25 55 C208.64 54.1, 142.56 54.48, 13.75 55 M13.75 55 C4.63 54.92, 1.14 48.87, 0 41.25 M13.75 55 C6.4 54.56, 0.32 48.91, 0 41.25 M0 41.25 C-1 29.99, -1.7 20.02, 0 13.75 M0 41.25 C0.09 31.69, -0.42 22.72, 0 13.75 M0 13.75 C0.43 6.31, 5.11 -1.86, 13.75 0 M0 13.75 C1.1 5.35, 6.3 0.75, 13.75 0" stroke="#1e1e1e" stroke-width="2" fill="none"></path></g><g transform="translate(76.75 324) rotate(0 93.75 12)"><text x="93.75" y="0" font-family="Cascadia, Segoe UI Emoji" font-size="20px" fill="#1e1e1e" text-anchor="middle" style="white-space: pre;" direction="ltr" dominant-baseline="text-before-edge">Power Management</text></g><g stroke-linecap="round" transform="translate(10 412) rotate(0 385.0000000000001 103)"><path d="M32 0 C211.95 0, 391.01 -0.8, 738 0 M32 0 C292.95 1.23, 553.88 1.48, 738 0 M738 0 C760.06 1.14, 769.22 8.68, 770 32 M738 0 C759.91 -1.57, 767.71 11.66, 770 32 M770 32 C769.04 78.98, 770.58 125.82, 770 174 M770 32 C769.81 63.49, 769.75 96.13, 770 174 M770 174 C771.37 195.32, 760.06 204.6, 738 206 M770 174 C768.54 195.06, 759.54 206.07, 738 206 M738 206 C586.35 207.47, 435.17 207.03, 32 206 M738 206 C562.64 208.41, 386.61 208.47, 32 206 M32 206 C12.13 205.83, 0.75 193.39, 0 174 M32 206 C10.11 207.61, -0.55 197.08, 0 174 M0 174 C-0.67 132.4, 1.6 90.88, 0 32 M0 174 C-1.97 123.23, -1.25 69.84, 0 32 M0 32 C-0.7 11.62, 12.1 -1.56, 32 0 M0 32 C-1.51 10.04, 10 -1.01, 32 0" stroke="#1e1e1e" stroke-width="2" fill="none"></path></g><g transform="translate(25 425) rotate(0 46.875 12)"><text x="0" y="0" font-family="Cascadia, Segoe UI Emoji" font-size="20px" fill="#1e1e1e" text-anchor="start" style="white-space: pre;" direction="ltr" dominant-baseline="text-before-edge">hardware</text></g><g stroke-linecap="round" transform="translate(29 469) rotate(0 101.5 27.5)"><path d="M13.75 0 C73.65 2.67, 129.92 1.43, 189.25 0 M13.75 0 C68.06 -0.67, 121.25 -2.24, 189.25 0 M189.25 0 C198.92 -1.36, 201.01 5.45, 203 13.75 M189.25 0 C199.25 1.38, 202.78 2.5, 203 13.75 M203 13.75 C201.49 19.38, 202.37 29.88, 203 41.25 M203 13.75 C203.92 20.26, 203.59 26.08, 203 41.25 M203 41.25 C201.73 50.18, 198.59 55.06, 189.25 55 M203 41.25 C201.02 50.24, 199.9 53.39, 189.25 55 M189.25 55 C143.21 52.31, 100.89 54.21, 13.75 55 M189.25 55 C135.09 55.41, 79.85 54.53, 13.75 55 M13.75 55 C4.1 56.4, -0.48 51.93, 0 41.25 M13.75 55 C4.38 53.82, -0.69 48.8, 0 41.25 M0 41.25 C1.16 34.72, 1.61 23.45, 0 13.75 M0 41.25 C-0.28 30.91, 0.79 18.84, 0 13.75 M0 13.75 C-1.31 4.04, 4.01 -0.88, 13.75 0 M0 13.75 C-2.1 2.98, 2.58 0.5, 13.75 0" stroke="#1e1e1e" stroke-width="2" fill="none"></path></g><g transform="translate(77.765625 484.5) rotate(0 52.734375 12)"><text x="52.734375" y="0" font-family="Cascadia, Segoe UI Emoji" font-size="20px" fill="#1e1e1e" text-anchor="middle" style="white-space: pre;" direction="ltr" dominant-baseline="text-before-edge">Processor</text></g><g stroke-linecap="round" transform="translate(248.5 468.5) rotate(0 101.5 27.5)"><path d="M13.75 0 C79.67 0.25, 146.71 0.5, 189.25 0 M13.75 0 C76.68 1.06, 138.11 2.17, 189.25 0 M189.25 0 C199.14 1.2, 202.81 2.77, 203 13.75 M189.25 0 C197.51 -0.31, 201.04 2.89, 203 13.75 M203 13.75 C201.66 21.56, 202.68 27.4, 203 41.25 M203 13.75 C202.46 21.87, 203.19 30.25, 203 41.25 M203 41.25 C201.28 50.26, 199.71 53.6, 189.25 55 M203 41.25 C202 48.51, 196.13 53.82, 189.25 55 M189.25 55 C145.09 54.39, 100.98 57.31, 13.75 55 M189.25 55 C137.84 54, 86.67 54.06, 13.75 55 M13.75 55 C4.41 53.97, -0.6 49.01, 0 41.25 M13.75 55 C4.3 56, -0.47 51.89, 0 41.25 M0 41.25 C1.63 30.56, -1.74 20.24, 0 13.75 M0 41.25 C-0.85 31.42, -0.49 21.7, 0 13.75 M0 13.75 C-1.83 3.19, 2.84 0.44, 13.75 0 M0 13.75 C-1.83 4.52, 3.93 0.67, 13.75 0" stroke="#1e1e1e" stroke-width="2" fill="none"></path></g><g transform="translate(320.703125 484) rotate(0 29.296875 12)"><text x="29.296875" y="0" font-family="Cascadia, Segoe UI Emoji" font-size="20px" fill="#1e1e1e" text-anchor="middle" style="white-space: pre;" direction="ltr" dominant-baseline="text-before-edge">Disks</text></g><g stroke-linecap="round" transform="translate(473.5 469.5) rotate(0 115 27.5)"><path d="M13.75 0 C80.39 -1.35, 143.21 -0.21, 216.25 0 M13.75 0 C61.03 -0.24, 107.57 -1.6, 216.25 0 M216.25 0 C224.63 -0.27, 228.29 3.11, 230 13.75 M216.25 0 C223.65 -0.68, 232.07 3.13, 230 13.75 M230 13.75 C229.96 25.02, 228.56 33.58, 230 41.25 M230 13.75 C229.16 21.59, 230.67 28.89, 230 41.25 M230 41.25 C229.13 48.76, 223.43 53.97, 216.25 55 M230 41.25 C228.92 52.34, 226.52 55.29, 216.25 55 M216.25 55 C170.04 57, 122.39 55.9, 13.75 55 M216.25 55 C141.25 55.91, 66.14 55.75, 13.75 55 M13.75 55 C4.34 55.87, -0.41 51.7, 0 41.25 M13.75 55 C6.18 56.99, -2.27 52.56, 0 41.25 M0 41.25 C1.16 35.17, -1.35 24.92, 0 13.75 M0 41.25 C-0.83 33.05, -0.79 26.47, 0 13.75 M0 13.75 C-1.59 4.53, 4.01 0.58, 13.75 0 M0 13.75 C-1.43 6.11, 5.9 0.07, 13.75 0" stroke="#1e1e1e" stroke-width="2" fill="none"></path></g><g transform="translate(512.328125 485) rotate(0 76.171875 12)"><text x="76.171875" y="0" font-family="Cascadia, Segoe UI Emoji" font-size="20px" fill="#1e1e1e" text-anchor="middle" style="white-space: pre;" direction="ltr" dominant-baseline="text-before-edge">Network Ports</text></g><g stroke-linecap="round" transform="translate(27.5 542.5) rotate(0 151.5 29)"><path d="M14.5 0 C85.01 -2.08, 158.3 0.03, 288.5 0 M14.5 0 C112.88 1.83, 211.22 1.36, 288.5 0 M288.5 0 C296.63 -0.59, 304.8 3.57, 303 14.5 M288.5 0 C300.09 -0.28, 304.58 4.82, 303 14.5 M303 14.5 C302.56 24.42, 302.86 32.27, 303 43.5 M303 14.5 C302.75 22.14, 302.19 30.93, 303 43.5 M303 43.5 C302.06 54.84, 299.13 58.26, 288.5 58 M303 43.5 C301.33 53.82, 299.85 57.81, 288.5 58 M288.5 58 C197.06 57.12, 104.62 57.35, 14.5 58 M288.5 58 C220.3 56.84, 152.14 57, 14.5 58 M14.5 58 C6.22 59.73, -1.97 55.03, 0 43.5 M14.5 58 C4.21 56.27, -0.81 54.26, 0 43.5 M0 43.5 C-0.32 32.15, -0.65 20.12, 0 14.5 M0 43.5 C-0.54 36.8, -0.03 30.44, 0 14.5 M0 14.5 C-1.24 6.16, 5.98 0.06, 14.5 0 M0 14.5 C1.43 5.9, 2.85 1.96, 14.5 0" stroke="#1e1e1e" stroke-width="2" fill="none"></path></g><g transform="translate(79.390625 559.5) rotate(0 99.609375 12)"><text x="99.609375" y="0" font-family="Cascadia, Segoe UI Emoji" font-size="20px" fill="#1e1e1e" text-anchor="middle" style="white-space: pre;" direction="ltr" dominant-baseline="text-before-edge">Main Memory (RAM)</text></g></svg>